<svg width="800" height="800" viewBox="0 0 800 800" fill="none" xmlns="http://www.w3.org/2000/svg">
<rect x="10" y="10" width="300" height="300" fill="#2774A9"/>
<rect x="490" y="10" width="300" height="300" fill="#C7932E"/>
<rect x="10" y="490" width="300" height="300" fill="#BA1320"/>
<rect x="490" y="490" width="300" height="300" fill="#BA493D"/>
<g style="mix-blend-mode:darken">
<rect x="310" y="310" width="180" height="180" fill="#6CA474"/>
</g>
<g style="mix-blend-mode:color-burn">
<rect x="360" y="360" width="80" height="80" fill="#A8A08D"/>
</g>
<g style="mix-blend-mode:overlay">
<path d="M315 316H358V359H315V316Z" fill="#A8A08D"/>
</g>
<g style="mix-blend-mode:overlay">
<rect x="441" y="440" width="43" height="43" fill="#A8A08D"/>
</g>
<g style="mix-blend-mode:overlay">
<rect x="316" y="441" width="43" height="43" fill="#A8A08D"/>
</g>
<g style="mix-blend-mode:overlay">
<rect x="441" y="316" width="43" height="43" fill="#A8A08D"/>
</g>
<g clip-path="url(#clip0_4_20)">
<rect x="364" y="70" width="70" height="240" fill="#6CA474"/>
<g style="mix-blend-mode:darken">
<rect x="315" y="262" width="43" height="43" fill="#A8A08D"/>
</g>
<g style="mix-blend-mode:darken">
<rect x="315" y="262" width="43" height="43" fill="#A8A08D"/>
</g>
<g style="mix-blend-mode:darken">
<rect x="315" y="262" width="43" height="43" fill="#A8A08D"/>
</g>
<g style="mix-blend-mode:darken">
<rect x="315" y="262" width="43" height="43" fill="#A8A08D"/>
</g>
<g style="mix-blend-mode:darken">
<rect x="315" y="262" width="43" height="43" fill="#A8A08D"/>
</g>
<g style="mix-blend-mode:darken">
<rect x="315" y="262" width="43" height="43" fill="#A8A08D"/>
</g>
<g style="mix-blend-mode:darken">
<rect x="316" y="262" width="43" height="43" fill="#A8A08D"/>
</g>
<g style="mix-blend-mode:darken">
<rect x="316" y="214" width="43" height="43" fill="#A8A08D"/>
</g>
<g style="mix-blend-mode:darken">
<rect x="316" y="70" width="43" height="43" fill="#A8A08D"/>
</g>
<g style="mix-blend-mode:darken">
<rect x="440" y="118" width="43" height="43" fill="#A8A08D"/>
</g>
<g style="mix-blend-mode:darken">
<rect x="440" y="70" width="43" height="43" fill="#A8A08D"/>
</g>
<g style="mix-blend-mode:darken">
<rect x="440" y="166" width="43" height="43" fill="#A8A08D"/>
</g>
<g style="mix-blend-mode:darken">
<rect x="440" y="214" width="43" height="43" fill="#A8A08D"/>
</g>
<g style="mix-blend-mode:darken">
<rect x="440" y="262" width="43" height="43" fill="#A8A08D"/>
</g>
<g style="mix-blend-mode:darken">
<rect x="440" y="22" width="43" height="43" fill="#A8A08D"/>
</g>
<g style="mix-blend-mode:soft-light">
<rect x="364" y="22" width="70" height="43" fill="#6CA474"/>
</g>
<g style="mix-blend-mode:darken">
<rect x="316" y="22" width="43" height="43" fill="#A8A08D"/>
</g>
<g style="mix-blend-mode:darken">
<rect x="316" y="118" width="43" height="43" fill="#A8A08D"/>
</g>
<g style="mix-blend-mode:darken">
<rect x="316" y="166" width="43" height="43" fill="#A8A08D"/>
</g>
<g style="mix-blend-mode:overlay">
<rect x="421" y="70" width="43" height="43" transform="rotate(90 421 70)" fill="#A8A08D"/>
</g>
<g style="mix-blend-mode:overlay">
<rect x="421" y="118" width="43" height="43" transform="rotate(90 421 118)" fill="#A8A08D"/>
</g>
<g style="mix-blend-mode:overlay">
<rect x="421" y="166" width="43" height="43" transform="rotate(90 421 166)" fill="#A8A08D"/>
</g>
<g style="mix-blend-mode:overlay">
<rect x="421" y="214" width="43" height="43" transform="rotate(90 421 214)" fill="#A8A08D"/>
</g>
<g style="mix-blend-mode:overlay">
<rect x="421" y="262" width="43" height="43" transform="rotate(90 421 262)" fill="#A8A08D"/>
</g>
</g>
<defs>
<clipPath id="clip0_4_20">
<rect width="177" height="291" fill="white" transform="translate(312 19)"/>
</clipPath>
</defs>
</svg>
