<svg width="60" height="120" viewBox="0 0 60 120" fill="none" xmlns="http://www.w3.org/2000/svg">
<rect width="60" height="120" fill="#F5F5F5"/>
<rect width="60" height="120" fill="white"/>
<ellipse cx="31" cy="115" rx="24" ry="5" fill="#C7932E"/>
<path d="M42 76C26 100.5 39.7818 115 30.9452 115C22.1087 115 36 100.5 20 76C20 56.1177 22.1087 20.5 30.9452 20.5C39.7818 20.5 42 56.1177 42 76Z" fill="#C7932E"/>
<path d="M39 15C39 19.4183 35.4183 23 31 23C26.5817 23 23 19.4183 23 15C23 10.5817 26.5817 7 31 7C35.4183 7 39 10.5817 39 15Z" fill="#C7932E"/>
</svg>
